<svg width="91" height="104" viewBox="0 0 91 104" fill="none" xmlns="http://www.w3.org/2000/svg">
<path d="M21.9126 77.1504L21.9127 77.1504C24.7468 80.2816 28.795 82.0769 33.0176 82.077L21.9126 77.1504ZM21.9126 77.1504C19.0785 74.0201 17.6935 69.814 18.1115 65.6125L21.9275 27.3166C22.3553 23.0238 19.3705 19.0516 15.1279 18.2673L15.1277 18.2673L3.21074 16.0673L3.21071 16.0673C1.41225 15.7354 0.223788 14.0091 0.555671 12.2107C0.887559 10.4123 2.6138 9.2238 4.41221 9.55566C4.41222 9.55567 4.41223 9.55567 4.41224 9.55567L16.3292 11.7556L16.3292 11.7557C23.9265 13.1575 29.2817 20.2831 28.5164 27.9714C28.5164 27.9714 28.5164 27.9714 28.5164 27.9715L24.7255 66.0123C24.499 68.2796 25.0854 70.618 26.5594 72.4023C28.1801 74.3649 30.4943 75.454 33.018 75.454H90.038M21.9126 77.1504L90.038 75.454M90.038 75.454C88.5537 79.3944 84.7725 82.0422 80.5147 82.045L33.018 82.077L90.038 75.454Z" fill="white" stroke="#323232"/>
<path d="M37.0433 87.5217C39.9809 90.2231 40.1724 94.7944 37.4711 97.732C34.7697 100.67 30.1984 100.861 27.2607 98.1598C24.3231 95.4584 24.1316 90.8871 26.8329 87.9495C29.5343 85.0118 34.1056 84.8203 37.0433 87.5217Z" fill="white" stroke="#323232"/>
<path d="M73.55 87.7434C76.3719 90.5653 76.3719 95.1405 73.55 97.9624C70.7281 100.784 66.1529 100.784 63.331 97.9624C60.5091 95.1405 60.5091 90.5653 63.331 87.7434C66.1529 84.9215 70.7281 84.9215 73.55 87.7434Z" fill="white" stroke="#323232"/>
<path d="M50.245 49.4223L33.2062 48.8565L34.3346 14.8745C34.5309 8.961 38.6095 1.12665 43.3147 1.28289C48.0198 1.43913 51.6002 8.61041 51.3734 15.4403L50.245 49.4223Z" fill="#FFC651"/>
<path d="M50.245 49.4223L33.2062 48.8566L34.3346 14.8745C34.5309 8.961 38.6095 1.12665 43.3147 1.28289C48.0198 1.43913 51.6002 8.61041 51.3734 15.4403L50.245 49.4223Z" stroke="black" stroke-width="1.54" stroke-linecap="round" stroke-linejoin="round"/>
<path d="M39.8156 11.6973L46.0011 11.9027" stroke="black" stroke-width="1.54" stroke-linecap="round" stroke-linejoin="round"/>
<path d="M39.7029 17.7709L45.8885 17.9763" stroke="black" stroke-width="1.54" stroke-linecap="round" stroke-linejoin="round"/>
<path d="M39.407 24.0169L45.5925 24.2223" stroke="black" stroke-width="1.54" stroke-linecap="round" stroke-linejoin="round"/>
<path d="M69.7405 54.3361H51.2861V22.7283C51.2861 22.7283 51.2861 19.3907 52.8567 17.0349C54.4273 14.679 57.1758 13.1084 57.1758 13.1084V6.38435C57.1758 6.19457 57.3297 6.04082 57.5194 6.04082H63.1146C63.3043 6.04082 63.4581 6.19457 63.4581 6.38435V13.1084C63.4581 13.1084 66.1929 14.6883 67.7772 17.0349C69.5336 19.6362 69.7405 22.7283 69.7405 22.7283V54.3361Z" fill="#B6DBF4"/>
<path d="M69.7405 54.3361H51.2861V22.7283C51.2861 22.7283 51.2861 19.3907 52.8567 17.0349C54.4273 14.679 57.1758 13.1084 57.1758 13.1084V6.38435C57.1758 6.19457 57.3297 6.04082 57.5194 6.04082H63.1146C63.3043 6.04082 63.4581 6.19457 63.4581 6.38435V13.1084C63.4581 13.1084 66.1929 14.6883 67.7772 17.0349C69.5336 19.6362 69.7405 22.7283 69.7405 22.7283V54.3361Z" stroke="black" stroke-width="1.54" stroke-linecap="round" stroke-linejoin="round"/>
<path d="M69.7324 39.7219H51.2942V23.9027H69.7324V39.7219Z" fill="#F9F9F9"/>
<path d="M69.7324 39.7219H51.2942V23.9027H69.7324V39.7219Z" stroke="black" stroke-width="1.54" stroke-linecap="round" stroke-linejoin="round"/>
<path d="M63.4464 9.23597H57.1607V6.33194C57.1607 6.14223 57.3145 5.9884 57.5042 5.9884H63.1029C63.2927 5.9884 63.4464 6.14223 63.4464 6.33194V9.23597Z" fill="#F9F9F9"/>
<path d="M63.4464 9.23597H57.1607V6.33194C57.1607 6.14223 57.3145 5.9884 57.5042 5.9884H63.1029C63.2927 5.9884 63.4464 6.14223 63.4464 6.33194V9.23597Z" stroke="black" stroke-width="1.54" stroke-linecap="round" stroke-linejoin="round"/>
<path d="M73.5699 43.0623C74.1367 43.0811 74.6332 42.6853 74.7411 42.1286C74.7411 42.1286 77.5204 28.5151 77.7825 27.1207C78.0447 25.7263 78.2008 24.2745 78.2008 24.2745C78.2789 21.9225 76.4356 19.9526 74.0837 19.8745C71.7317 19.7964 69.7619 21.6397 69.6838 23.9917C69.6838 23.9917 69.6719 24.9053 69.9195 26.6437C70.182 28.4872 72.4677 42.0845 72.4677 42.0845C72.5521 42.6331 73.0152 43.0438 73.5699 43.0623Z" fill="#F46838"/>
<path d="M73.5699 43.0623C74.1367 43.0811 74.6332 42.6853 74.7411 42.1286C74.7411 42.1286 77.5204 28.5151 77.7825 27.1207C78.0447 25.7263 78.2008 24.2745 78.2008 24.2745C78.2789 21.9225 76.4356 19.9526 74.0837 19.8745C71.7317 19.7964 69.7619 21.6397 69.6838 23.9917C69.6838 23.9917 69.6719 24.9053 69.9195 26.6437C70.182 28.4872 72.4677 42.0845 72.4677 42.0845C72.5521 42.6331 73.0152 43.0438 73.5699 43.0623Z" stroke="black" stroke-width="1.54" stroke-miterlimit="10"/>
<path d="M75.1497 19.7461C77.7009 16.5475 80.359 13.8748 78.0785 13.5131C75.8246 13.1556 77.4519 12.416 78.8005 10.2065C79.8863 8.42771 78.4014 6.79119 76.5391 6.68693C74.6769 6.58267 72.2076 7.5902 73.3301 11.3147C74.4526 15.0392 73.0107 12.6488 71.776 12.216C71.0086 11.947 71.2354 12.945 71.3556 13.5372C71.7582 15.5209 74.2285 19.2383 74.6178 19.7006C74.8905 20.0243 75.1497 19.7461 75.1497 19.7461Z" fill="#5CBA80"/>
<path d="M75.1497 19.7461C77.7009 16.5475 80.359 13.8748 78.0785 13.5131C75.8246 13.1556 77.4519 12.416 78.8005 10.2065C79.8863 8.42771 78.4014 6.79119 76.5391 6.68693C74.6769 6.58267 72.2076 7.5902 73.3301 11.3147C74.4526 15.0392 73.0107 12.6488 71.776 12.216C71.0086 11.947 71.2354 12.945 71.3556 13.5372C71.7582 15.5209 74.2285 19.2383 74.6178 19.7006C74.8905 20.0243 75.1497 19.7461 75.1497 19.7461Z" stroke="black" stroke-width="1.54" stroke-miterlimit="10"/>
<path d="M76.0641 9.18161C75.1266 11.6038 74.7158 18.1913 74.8792 19.4645L76.0641 9.18161Z" fill="#5CBA80"/>
<path d="M76.0641 9.18161C75.1266 11.6038 74.7158 18.1913 74.8792 19.4645" stroke="black" stroke-width="1.54" stroke-linecap="round" stroke-linejoin="round"/>
<path d="M67.0201 42.8448C66.4533 42.8259 65.9841 42.3981 65.9134 41.8354C65.9134 41.8354 64.0434 28.0675 63.8743 26.6589C63.7052 25.2501 63.6458 23.7911 63.6458 23.7911C63.7239 21.4392 65.6938 19.5959 68.0457 19.674C70.3977 19.7521 72.2409 21.722 72.1628 24.0739C72.1628 24.0739 72.1141 24.9864 71.7517 26.7045C71.3674 28.5266 68.1848 41.9423 68.1848 41.9423C68.0641 42.484 67.5749 42.8632 67.0201 42.8448Z" fill="#F46838"/>
<path d="M67.0201 42.8448C66.4533 42.8259 65.9841 42.3981 65.9134 41.8354C65.9134 41.8354 64.0434 28.0675 63.8743 26.6589C63.7052 25.2501 63.6458 23.7911 63.6458 23.7911C63.7239 21.4392 65.6938 19.5959 68.0457 19.674C70.3977 19.7521 72.2409 21.722 72.1628 24.0739C72.1628 24.0739 72.1141 24.9864 71.7517 26.7045C71.3674 28.5266 68.1848 41.9423 68.1848 41.9423C68.0641 42.484 67.5749 42.8632 67.0201 42.8448Z" stroke="black" stroke-width="1.54" stroke-miterlimit="10"/>
<path d="M67.7791 19.4289C65.5678 16.0625 63.1959 13.2132 65.5039 13.0108C67.785 12.8107 66.2407 11.9603 65.1251 9.66363C64.2269 7.81462 65.8738 6.28578 67.7388 6.31099C69.6038 6.33621 71.959 7.51207 70.4582 11.1479C68.9574 14.7838 70.639 12.5005 71.913 12.1546C72.7047 11.9396 72.3763 12.9189 72.1957 13.5011C71.5907 15.4511 68.7486 18.9865 68.3134 19.4204C68.0086 19.7243 67.7791 19.4289 67.7791 19.4289Z" fill="#5CBA80"/>
<path d="M67.7791 19.4289C65.5678 16.0625 63.1959 13.2132 65.5039 13.0108C67.785 12.8107 66.2407 11.9603 65.1251 9.66363C64.2269 7.81462 65.8738 6.28578 67.7388 6.31099C69.6038 6.33621 71.959 7.51207 70.4582 11.1479C68.9574 14.7838 70.639 12.5005 71.913 12.1546C72.7047 11.9396 72.3763 12.9189 72.1957 13.5011C71.5907 15.4511 68.7486 18.9865 68.3134 19.4204C68.0086 19.7243 67.7791 19.4289 67.7791 19.4289Z" stroke="black" stroke-width="1.54" stroke-miterlimit="10"/>
<path d="M67.9257 8.81793C68.6101 11.2981 68.3416 17.8951 68.0479 19.1533L67.9257 8.81793Z" fill="#5CBA80"/>
<path d="M67.9257 8.81793C68.6101 11.2981 68.3416 17.8951 68.0479 19.1533" stroke="black" stroke-width="1.54" stroke-linecap="round" stroke-linejoin="round"/>
<path d="M83.973 69.9829L31.9666 69.9828C31.5352 69.9828 31.2 69.6072 31.249 69.1787C31.249 69.1787 32.9741 51.6066 32.9702 51.5595L31.2214 26.8936C31.1867 26.4728 31.5189 26.1122 31.9411 26.1122H83.9977C84.4192 26.1122 84.7512 26.4718 84.7176 26.8919L82.9097 51.5595C82.906 51.6053 82.9068 51.514 82.9119 51.5595L84.6908 69.181C84.7383 69.6088 84.4035 69.9829 83.973 69.9829Z" fill="#01AC66"/>
<path d="M83.973 69.9829L31.9666 69.9829C31.5352 69.9829 31.2 69.6072 31.249 69.1787C31.249 69.1787 32.9741 51.6066 32.9702 51.5595L31.2214 26.8936C31.1867 26.4728 31.5189 26.1122 31.9411 26.1122H83.9977C84.4192 26.1122 84.7512 26.4718 84.7176 26.8919L82.9097 51.5595C82.906 51.6053 82.9068 51.514 82.9119 51.5595L84.6908 69.181C84.7383 69.6088 84.4035 69.9829 83.973 69.9829Z" stroke="black" stroke-width="1.54" stroke-linecap="round" stroke-linejoin="round"/>
<path d="M84.9084 69.706L79.6007 62.5955L73.5152 69.9408L72.0435 51.5596L73.5152 26.1379H84.8388C85.1518 26.1379 85.3989 26.4038 85.3761 26.7159L83.7206 51.5596L85.3316 69.5431C85.3556 69.7812 85.0501 69.8987 84.9084 69.706Z" fill="#01AC66"/>
<path d="M84.9084 69.706L79.6007 62.5955L73.5152 69.9408L72.0435 51.5596L73.5152 26.1379H84.8388C85.1518 26.1379 85.3989 26.4038 85.3761 26.7159L83.7206 51.5596L85.3316 69.5431C85.3556 69.7812 85.0501 69.8987 84.9084 69.706Z" stroke="black" stroke-width="1.54" stroke-linecap="round" stroke-linejoin="round"/>
<path d="M79.441 26.1379L78.0866 51.5596L79.5229 62.5954L85.0572 69.8253C85.157 69.9623 85.3738 69.8793 85.3568 69.7107L83.7209 51.5596L85.3813 26.6512C85.4015 26.374 85.182 26.1379 84.904 26.1379H79.441Z" fill="#01AC66"/>
<path d="M79.441 26.1379L78.0866 51.5596L79.5229 62.5954L85.0572 69.8253C85.157 69.9623 85.3738 69.8793 85.3568 69.7107L83.7209 51.5596L85.3813 26.6512C85.4015 26.374 85.182 26.1379 84.904 26.1379H79.441Z" stroke="black" stroke-width="1.54" stroke-linecap="round" stroke-linejoin="round"/>
<path d="M79.445 62.5954L73.6705 69.9218L84.85 70C85.2159 70 85.4271 69.5847 85.2117 69.2889L79.445 62.5954Z" fill="#01AC66"/>
<path d="M79.445 62.5954L73.6705 69.9218L84.85 70C85.2159 70 85.4271 69.5847 85.2117 69.2889L79.445 62.5954Z" stroke="black" stroke-width="1.54" stroke-linecap="round" stroke-linejoin="round"/>
</svg>
